<svg width="15" height="19" viewBox="0 0 15 19" fill="none" xmlns="http://www.w3.org/2000/svg">
<path d="M7.29688 18.2537C6.03381 17.1763 4.86306 15.9952 3.79688 14.7227C2.19688 12.8117 0.296876 9.96571 0.296876 7.25371C0.295458 4.42126 2.00112 1.8671 4.61794 0.78311C7.23477 -0.300883 10.2469 0.298953 12.2489 2.30271C13.5653 3.61332 14.3028 5.3961 14.2969 7.25371C14.2969 9.96571 12.3969 12.8117 10.7969 14.7227C9.73069 15.9952 8.55994 17.1763 7.29688 18.2537ZM7.29688 4.25371C6.22508 4.25371 5.2347 4.82551 4.6988 5.75371C4.1629 6.68192 4.1629 7.82551 4.6988 8.75371C5.2347 9.68192 6.22508 10.2537 7.29688 10.2537C8.95373 10.2537 10.2969 8.91057 10.2969 7.25371C10.2969 5.59686 8.95373 4.25371 7.29688 4.25371Z" fill="#57A8C0"/>
</svg>
