<svg width="21" height="20" viewBox="0 0 21 20" fill="none" xmlns="http://www.w3.org/2000/svg">
<path fill-rule="evenodd" clip-rule="evenodd" d="M0.296875 7.5C0.296875 11.6421 3.65474 15 7.79688 15C9.52851 15 11.1231 14.4131 12.3926 13.4275C12.4404 13.5286 12.5061 13.6234 12.5898 13.7071L18.5898 19.7071C18.9803 20.0976 19.6135 20.0976 20.004 19.7071C20.3945 19.3166 20.3945 18.6834 20.004 18.2929L14.004 12.2929C13.9203 12.2092 13.8255 12.1435 13.7244 12.0957C14.71 10.8262 15.2969 9.23164 15.2969 7.5C15.2969 3.35786 11.939 0 7.79688 0C3.65474 0 0.296875 3.35786 0.296875 7.5ZM2.29688 7.5C2.29688 4.46243 4.75931 2 7.79688 2C10.8344 2 13.2969 4.46243 13.2969 7.5C13.2969 10.5376 10.8344 13 7.79688 13C4.75931 13 2.29688 10.5376 2.29688 7.5Z" fill="white"/>
</svg>
