<svg width="21" height="18" viewBox="0 0 21 18" fill="none" xmlns="http://www.w3.org/2000/svg">
<path fill-rule="evenodd" clip-rule="evenodd" d="M1.10938 0C0.55709 0 0.109375 0.447715 0.109375 1C0.109375 1.55228 0.55709 2 1.10938 2V1L1.10939 2H1.10943H1.10959H1.10971H1.10985H1.11003H1.11022H1.11128H1.11275H1.11364H1.11412H1.11463H1.11691H1.1196H1.12033H1.12109H1.12268H1.16113H1.30469H1.79688H2.31115L4.63424 12.2216C4.75402 12.7486 5.2697 13.083 5.79642 12.9824C5.8573 12.9939 5.92013 13 5.98438 13H16.1094C16.5262 13 16.8993 12.7414 17.0457 12.3511L20.0457 4.35112C20.1609 4.04403 20.1181 3.69998 19.9313 3.43041C19.7445 3.16083 19.4374 3 19.1094 3H4.58942L4.08451 0.778379C3.98103 0.32309 3.57627 0 3.10938 0H1.79688H1.30469H1.16113H1.15503H1.14928H1.1479H1.14655H1.14391H1.1389H1.13002H1.12902H1.12804H1.12709H1.12616H1.12525H1.12437H1.12268H1.11691H1.11463H1.11412H1.11364H1.11275H1.11022H1.10985H1.10971H1.10959H1.10943H1.10939L1.10938 1V0ZM5.04397 5L6.4076 11H15.4164L17.6664 5H5.04397ZM8.10938 14C7.00481 14 6.10938 14.8954 6.10938 16C6.10938 17.1046 7.00481 18 8.10938 18C9.21394 18 10.1094 17.1046 10.1094 16C10.1094 14.8954 9.21394 14 8.10938 14ZM12.1094 16C12.1094 14.8954 13.0048 14 14.1094 14C15.2139 14 16.1094 14.8954 16.1094 16C16.1094 17.1046 15.2139 18 14.1094 18C13.0048 18 12.1094 17.1046 12.1094 16Z" fill="#57A8C0"/>
</svg>
