<svg width="188" height="31" viewBox="0 0 188 31" fill="none" xmlns="http://www.w3.org/2000/svg">
<path d="M5.35742 25V6.68066H1.52344V25H5.35742ZM17.9182 25V9.8418H23.2248V6.68066H8.79023V9.8418H14.0842V25H17.9182ZM25.9594 19.7822C26.0736 23.2227 28.8793 25.3174 33.2846 25.3174C37.8295 25.3174 40.7113 23.0703 40.7113 19.5156C40.7113 16.7227 39.1117 15.1484 35.4428 14.3613L33.2211 13.8916C31.1137 13.4092 30.225 12.7744 30.225 11.6445C30.225 10.2861 31.4945 9.38477 33.3861 9.38477C35.3031 9.38477 36.6615 10.3242 36.7885 11.873H40.3813C40.3178 8.55957 37.6391 6.36328 33.3734 6.36328C29.2855 6.36328 26.3656 8.59766 26.3656 11.9746C26.3656 14.6533 28.0287 16.3672 31.4057 17.0908L33.7924 17.6113C36.0014 18.1064 36.8773 18.7666 36.8773 19.96C36.8773 21.3057 35.4809 22.2832 33.4369 22.2832C31.4057 22.2832 29.8314 21.293 29.6537 19.7822H25.9594ZM52.7643 19.1729V15.9355H44.4234V19.1729H52.7643ZM57.1746 6.68066V25H61.0086V19.2236H64.4363C68.2957 19.2236 70.9744 16.71 70.9744 12.9521C70.9744 9.18164 68.3846 6.68066 64.6268 6.68066H57.1746ZM61.0086 9.71484H63.6111C65.8074 9.71484 67.077 10.8828 67.077 12.9648C67.077 15.0596 65.7947 16.2275 63.5984 16.2275H61.0086V9.71484ZM78.3809 9.67676H81.6436C83.5479 9.67676 84.7412 10.8193 84.7412 12.5967C84.7412 14.4121 83.6113 15.5166 81.6816 15.5166H78.3809V9.67676ZM78.3809 18.2969H81.4531L84.8682 25H89.21L85.3506 17.7256C87.458 16.9004 88.6768 14.8691 88.6768 12.5205C88.6768 8.90234 86.2646 6.68066 82.0498 6.68066H74.5469V25H78.3809V18.2969Z" fill="white"/>
<path d="M120.581 19.6045C120.581 23.1084 123.031 25.3809 126.776 25.3809C130.699 25.3809 133.035 23.1592 133.035 19.2617V6.68066H129.201V19.2363C129.201 21.0771 128.338 22.0674 126.738 22.0674C125.291 22.0674 124.326 21.0898 124.301 19.6045H120.581ZM149.671 21.8262H141.368V17.2051H149.201V14.2598H141.368V9.8418H149.671V6.68066H137.534V25H149.671V21.8262ZM161.838 25.3174C166.332 25.3174 169.468 22.7275 169.9 18.6396H166.167C165.761 20.8105 164.123 22.1436 161.851 22.1436C158.918 22.1436 157.078 19.7314 157.078 15.8213C157.078 11.9619 158.944 9.53711 161.838 9.53711C164.073 9.53711 165.799 11.0098 166.155 13.2568H169.887C169.595 9.15625 166.244 6.36328 161.838 6.36328C156.532 6.36328 153.167 9.93066 153.167 15.834C153.167 21.75 156.506 25.3174 161.838 25.3174ZM181.204 25V9.8418H186.51V6.68066H172.076V9.8418H177.37V25H181.204Z" fill="white"/>
<circle cx="105.25" cy="15.25" r="13.25" fill="white"/>
<circle cx="105.249" cy="15.2502" r="9.17308" fill="#A4A4A4" fill-opacity="0.63"/>
<circle cx="105.25" cy="15.2501" r="6.45513" fill="#3A556A"/>
<path d="M110.347 15.25C110.347 18.0645 108.065 20.3461 105.25 20.3461C102.436 20.3461 100.154 18.0645 100.154 15.25C100.154 12.4354 102.436 10.1538 105.25 10.1538C108.065 10.1538 110.347 12.4354 110.347 15.25ZM101.162 15.25C101.162 17.5082 102.992 19.3388 105.25 19.3388C107.509 19.3388 109.339 17.5082 109.339 15.25C109.339 12.9917 107.509 11.1611 105.25 11.1611C102.992 11.1611 101.162 12.9917 101.162 15.25Z" fill="#64798A"/>
<circle cx="105.25" cy="15.2498" r="2.37821" fill="#2F4859"/>
<circle cx="106.929" cy="13.5307" r="0.659103" fill="white"/>
</svg>
