<svg width="188" height="31" viewBox="0 0 188 31" fill="none" xmlns="http://www.w3.org/2000/svg">
<path d="M5.4668 25V6.68066H1.63281V25H5.4668ZM18.0275 25V9.8418H23.3342V6.68066H8.89961V9.8418H14.1936V25H18.0275ZM26.0688 19.7822C26.183 23.2227 28.9887 25.3174 33.3939 25.3174C37.9389 25.3174 40.8207 23.0703 40.8207 19.5156C40.8207 16.7227 39.2211 15.1484 35.5521 14.3613L33.3305 13.8916C31.223 13.4092 30.3344 12.7744 30.3344 11.6445C30.3344 10.2861 31.6039 9.38477 33.4955 9.38477C35.4125 9.38477 36.7709 10.3242 36.8979 11.873H40.4906C40.4271 8.55957 37.7484 6.36328 33.4828 6.36328C29.3949 6.36328 26.475 8.59766 26.475 11.9746C26.475 14.6533 28.1381 16.3672 31.515 17.0908L33.9018 17.6113C36.1107 18.1064 36.9867 18.7666 36.9867 19.96C36.9867 21.3057 35.5902 22.2832 33.5463 22.2832C31.515 22.2832 29.9408 21.293 29.7631 19.7822H26.0688ZM52.8736 19.1729V15.9355H44.5328V19.1729H52.8736ZM57.284 6.68066V25H61.118V19.2236H64.5457C68.4051 19.2236 71.0838 16.71 71.0838 12.9521C71.0838 9.18164 68.4939 6.68066 64.7361 6.68066H57.284ZM61.118 9.71484H63.7205C65.9168 9.71484 67.1863 10.8828 67.1863 12.9648C67.1863 15.0596 65.9041 16.2275 63.7078 16.2275H61.118V9.71484ZM78.4902 9.67676H81.7529C83.6572 9.67676 84.8506 10.8193 84.8506 12.5967C84.8506 14.4121 83.7207 15.5166 81.791 15.5166H78.4902V9.67676ZM78.4902 18.2969H81.5625L84.9775 25H89.3193L85.46 17.7256C87.5674 16.9004 88.7861 14.8691 88.7861 12.5205C88.7861 8.90234 86.374 6.68066 82.1592 6.68066H74.6562V25H78.4902V18.2969Z" fill="black" fill-opacity="0.8"/>
<path d="M120.69 19.6045C120.69 23.1084 123.141 25.3809 126.886 25.3809C130.809 25.3809 133.145 23.1592 133.145 19.2617V6.68066H129.311V19.2363C129.311 21.0771 128.447 22.0674 126.848 22.0674C125.4 22.0674 124.436 21.0898 124.41 19.6045H120.69ZM149.78 21.8262H141.478V17.2051H149.311V14.2598H141.478V9.8418H149.78V6.68066H137.644V25H149.78V21.8262ZM161.948 25.3174C166.442 25.3174 169.578 22.7275 170.009 18.6396H166.277C165.871 20.8105 164.233 22.1436 161.96 22.1436C159.028 22.1436 157.187 19.7314 157.187 15.8213C157.187 11.9619 159.053 9.53711 161.948 9.53711C164.182 9.53711 165.909 11.0098 166.264 13.2568H169.996C169.704 9.15625 166.353 6.36328 161.948 6.36328C156.641 6.36328 153.277 9.93066 153.277 15.834C153.277 21.75 156.616 25.3174 161.948 25.3174ZM181.313 25V9.8418H186.62V6.68066H172.185V9.8418H177.479V25H181.313Z" fill="black" fill-opacity="0.8"/>
<circle cx="105.359" cy="15.25" r="13.25" fill="#57A8C0"/>
<circle cx="105.359" cy="15.2502" r="9.17308" fill="white"/>
<circle cx="105.359" cy="15.25" r="6.45513" fill="#3A556A"/>
<path d="M110.456 15.25C110.456 18.0645 108.174 20.3461 105.36 20.3461C102.545 20.3461 100.264 18.0645 100.264 15.25C100.264 12.4354 102.545 10.1538 105.36 10.1538C108.174 10.1538 110.456 12.4354 110.456 15.25ZM101.271 15.25C101.271 17.5082 103.102 19.3388 105.36 19.3388C107.618 19.3388 109.449 17.5082 109.449 15.25C109.449 12.9917 107.618 11.1611 105.36 11.1611C103.102 11.1611 101.271 12.9917 101.271 15.25Z" fill="#64798A"/>
<circle cx="105.36" cy="15.2498" r="2.37821" fill="#2F4859"/>
<circle cx="107.038" cy="13.5307" r="0.659103" fill="white"/>
</svg>
