<svg width="19" height="18" viewBox="0 0 19 18" fill="none" xmlns="http://www.w3.org/2000/svg">
<path d="M17.7374 18C8.13934 18.0136 0.854977 10.6419 0.865245 1.12782C0.865245 0.506503 1.36893 0 1.99025 0H4.95952C5.51704 0 5.99066 0.409646 6.07252 0.96112C6.26873 2.28285 6.65355 3.56959 7.21528 4.78204L7.33089 5.03157C7.49163 5.37852 7.38268 5.79076 7.0715 6.01298C6.15195 6.66966 5.80052 7.9915 6.51689 9.0229C7.41586 10.3172 8.54904 11.4501 9.84304 12.3487C10.8744 13.0649 12.196 12.7135 12.8527 11.7941C13.0751 11.4828 13.4875 11.3737 13.8347 11.5346L14.0831 11.6496C15.2956 12.2113 16.5824 12.5961 17.9043 12.7923C18.4558 12.8742 18.8652 13.3478 18.8652 13.9053V16.875C18.8652 17.4963 18.3603 18 17.739 18L17.7374 18Z" fill="#57A8C0"/>
</svg>
