<svg width="21" height="19" viewBox="0 0 21 19" fill="none" xmlns="http://www.w3.org/2000/svg">
<path d="M7.23145 0.5C4.47002 0.5 2.23145 2.73858 2.23145 5.5C2.23145 8.26142 4.47002 10.5 7.23145 10.5C9.99287 10.5 12.2314 8.26142 12.2314 5.5C12.2314 2.73858 9.99287 0.5 7.23145 0.5ZM4.23145 5.5C4.23145 3.84315 5.57459 2.5 7.23145 2.5C8.8883 2.5 10.2314 3.84315 10.2314 5.5C10.2314 7.15685 8.8883 8.5 7.23145 8.5C5.57459 8.5 4.23145 7.15685 4.23145 5.5Z" fill="#57A8C0"/>
<path d="M15.1399 5.71828C14.8585 5.57484 14.5472 5.50006 14.2314 5.50006V3.50006C14.863 3.50006 15.4857 3.64956 16.0483 3.93645C16.1103 3.96805 16.1714 4.00121 16.2314 4.0359C16.7168 4.31614 17.1386 4.69569 17.4687 5.15055C17.8397 5.66172 18.0844 6.25347 18.1827 6.87737C18.281 7.50126 18.2302 8.13958 18.0344 8.74005C17.8386 9.34053 17.5034 9.88611 17.0562 10.3321C16.609 10.7782 16.0625 11.1119 15.4615 11.3062C14.9267 11.479 14.3623 11.537 13.805 11.4772C13.736 11.4698 13.6672 11.4606 13.5985 11.4496C12.9753 11.3497 12.3845 11.1038 11.8746 10.7319L11.8735 10.7311L13.0525 9.11557C13.3076 9.30172 13.6032 9.42477 13.915 9.47474C14.2268 9.52471 14.546 9.50014 14.8465 9.40302C15.147 9.30591 15.4202 9.13903 15.6438 8.91602C15.8674 8.69302 16.035 8.42024 16.1329 8.12001C16.2308 7.81978 16.2562 7.50063 16.207 7.18869C16.1579 6.87675 16.0355 6.58089 15.85 6.32531C15.6646 6.06974 15.4212 5.86172 15.1399 5.71828Z" fill="#57A8C0"/>
<path d="M18.2295 18.5C18.2295 17.975 18.1261 17.4551 17.9252 16.97C17.7243 16.4849 17.4298 16.0442 17.0585 15.6729C16.6873 15.3017 16.2465 15.0072 15.7615 14.8062C15.2764 14.6053 14.7565 14.5019 14.2314 14.5019V12.5C14.9135 12.5 15.5898 12.6163 16.2314 12.8431C16.331 12.8783 16.4298 12.9162 16.5275 12.9567C17.2555 13.2583 17.9169 13.7002 18.4741 14.2574C19.0312 14.8145 19.4732 15.4759 19.7747 16.2039C19.8152 16.3017 19.8531 16.4004 19.8883 16.5C20.1151 17.1416 20.2314 17.8179 20.2314 18.5H18.2295Z" fill="#57A8C0"/>
<path d="M14.2314 18.5H12.2314C12.2314 15.7386 9.99287 13.5 7.23145 13.5C4.47002 13.5 2.23145 15.7386 2.23145 18.5H0.231445C0.231445 14.634 3.36545 11.5 7.23145 11.5C11.0974 11.5 14.2314 14.634 14.2314 18.5Z" fill="#57A8C0"/>
</svg>
