<svg width="21" height="20" viewBox="0 0 21 20" fill="none" xmlns="http://www.w3.org/2000/svg">
<path fill-rule="evenodd" clip-rule="evenodd" d="M0.1875 7.5C0.1875 11.6421 3.54536 15 7.6875 15C9.41914 15 11.0137 14.4131 12.2832 13.4275C12.331 13.5286 12.3967 13.6234 12.4804 13.7071L18.4804 19.7071C18.8709 20.0976 19.5041 20.0976 19.8946 19.7071C20.2851 19.3166 20.2851 18.6834 19.8946 18.2929L13.8946 12.2929C13.8109 12.2092 13.7161 12.1435 13.615 12.0957C14.6006 10.8262 15.1875 9.23164 15.1875 7.5C15.1875 3.35786 11.8296 0 7.6875 0C3.54536 0 0.1875 3.35786 0.1875 7.5ZM2.1875 7.5C2.1875 4.46243 4.64993 2 7.6875 2C10.7251 2 13.1875 4.46243 13.1875 7.5C13.1875 10.5376 10.7251 13 7.6875 13C4.64993 13 2.1875 10.5376 2.1875 7.5Z" fill="white"/>
</svg>
